<svg width="48" height="48" viewBox="0 0 48 48" fill="none" xmlns="http://www.w3.org/2000/svg">
<path fill-rule="evenodd" clip-rule="evenodd" d="M14.5004 10.922V13.762L11.1124 14.038C9.94849 14.1316 8.84957 14.6129 7.99137 15.4047C7.13317 16.1966 6.56525 17.2533 6.37843 18.406C6.29643 18.922 6.21843 19.438 6.15043 19.956C6.13424 20.0812 6.15825 20.2084 6.219 20.3191C6.27975 20.4298 6.37409 20.5183 6.48843 20.572L6.64243 20.644C17.5004 25.784 30.5024 25.784 41.3584 20.644L41.5124 20.572C41.6264 20.518 41.7203 20.4293 41.7807 20.3187C41.8411 20.208 41.8648 20.081 41.8484 19.956C41.7807 19.4382 41.7053 18.9215 41.6224 18.406C41.4356 17.2533 40.8677 16.1966 40.0095 15.4047C39.1513 14.6129 38.0524 14.1316 36.8884 14.038L33.5004 13.764V10.924C33.5006 10.0857 33.1999 9.27515 32.6531 8.63981C32.1062 8.00447 31.3494 7.58652 30.5204 7.46197L28.0804 7.09597C25.3756 6.69018 22.6253 6.69018 19.9204 7.09597L17.4804 7.46197C16.6518 7.58647 15.8953 8.00413 15.3484 8.63905C14.8016 9.27398 14.5007 10.084 14.5004 10.922ZM27.6344 10.062C25.2252 9.70063 22.7756 9.70063 20.3664 10.062L17.9264 10.428C17.808 10.4457 17.6999 10.5053 17.6218 10.5959C17.5436 10.6866 17.5005 10.8023 17.5004 10.922V13.552C21.8302 13.3039 26.1706 13.3039 30.5004 13.552V10.922C30.5003 10.8023 30.4572 10.6866 30.3791 10.5959C30.3009 10.5053 30.1928 10.4457 30.0744 10.428L27.6344 10.062Z" fill="black"/>
<path d="M42.2359 24.14C42.232 24.0754 42.2124 24.0126 42.1788 23.9572C42.1452 23.9018 42.0987 23.8554 42.0432 23.822C41.9877 23.7885 41.9249 23.769 41.8603 23.7652C41.7956 23.7614 41.731 23.7733 41.6719 23.8C30.5299 28.734 17.4699 28.734 6.32793 23.8C6.2689 23.7733 6.20427 23.7614 6.1396 23.7652C6.07493 23.769 6.01215 23.7885 5.95667 23.822C5.90119 23.8554 5.85466 23.9018 5.82109 23.9572C5.78751 24.0126 5.7679 24.0754 5.76393 24.14C5.55954 27.969 5.76538 31.8089 6.37793 35.594C6.56435 36.7471 7.13209 37.8042 7.99033 38.5965C8.84856 39.3887 9.94771 39.8703 11.1119 39.964L14.8559 40.264C20.9419 40.756 27.0559 40.756 33.1439 40.264L36.8879 39.964C38.0522 39.8703 39.1513 39.3887 40.0095 38.5965C40.8678 37.8042 41.4355 36.7471 41.6219 35.594C42.2339 31.804 42.4419 27.964 42.2359 24.142" fill="black"/>
</svg>
