<svg width="48" height="48" viewBox="0 0 48 48" fill="none" xmlns="http://www.w3.org/2000/svg">
<rect width="48" height="48" rx="12" fill="#F5F2F0"/>
<path fill-rule="evenodd" clip-rule="evenodd" d="M24 20.25C21.9289 20.25 20.25 21.9289 20.25 24C20.25 26.0711 21.9289 27.75 24 27.75C26.0711 27.75 27.75 26.0711 27.75 24C27.75 21.9289 26.0711 20.25 24 20.25ZM24 26.25C22.7574 26.25 21.75 25.2426 21.75 24C21.75 22.7574 22.7574 21.75 24 21.75C25.2426 21.75 26.25 22.7574 26.25 24C26.25 25.2426 25.2426 26.25 24 26.25ZM34.5 17.25H13.5C13.0858 17.25 12.75 17.5858 12.75 18V30C12.75 30.4142 13.0858 30.75 13.5 30.75H34.5C34.9142 30.75 35.25 30.4142 35.25 30V18C35.25 17.5858 34.9142 17.25 34.5 17.25ZM30.1547 29.25H17.8453C17.3337 27.5197 15.9803 26.1663 14.25 25.6547V22.3453C15.9803 21.8337 17.3337 20.4803 17.8453 18.75H30.1547C30.6663 20.4803 32.0197 21.8337 33.75 22.3453V25.6547C32.0197 26.1663 30.6663 27.5197 30.1547 29.25ZM33.75 20.7534C32.8504 20.3666 32.1334 19.6496 31.7466 18.75H33.75V20.7534ZM16.2534 18.75C15.8666 19.6496 15.1496 20.3666 14.25 20.7534V18.75H16.2534ZM14.25 27.2466C15.1496 27.6334 15.8666 28.3504 16.2534 29.25H14.25V27.2466ZM31.7466 29.25C32.1334 28.3504 32.8504 27.6334 33.75 27.2466V29.25H31.7466Z" fill="#1C140D"/>
</svg>
