<svg width="70" height="70" viewBox="0 0 70 70" fill="none" xmlns="http://www.w3.org/2000/svg">
<rect width="70" height="70" rx="35" fill="#F28F0D"/>
<path fill-rule="evenodd" clip-rule="evenodd" d="M46.6663 26.25C46.6663 29.3442 45.4372 32.3116 43.2493 34.4996C41.0613 36.6875 38.0939 37.9166 34.9997 37.9166C31.9055 37.9166 28.938 36.6875 26.7501 34.4996C24.5622 32.3116 23.333 29.3442 23.333 26.25C23.333 23.1558 24.5622 20.1883 26.7501 18.0004C28.938 15.8125 31.9055 14.5833 34.9997 14.5833C38.0939 14.5833 41.0613 15.8125 43.2493 18.0004C45.4372 20.1883 46.6663 23.1558 46.6663 26.25ZM40.833 26.25C40.833 27.7971 40.2184 29.2808 39.1245 30.3748C38.0305 31.4687 36.5468 32.0833 34.9997 32.0833C33.4526 32.0833 31.9688 31.4687 30.8749 30.3748C29.7809 29.2808 29.1663 27.7971 29.1663 26.25C29.1663 24.7029 29.7809 23.2192 30.8749 22.1252C31.9688 21.0312 33.4526 20.4166 34.9997 20.4166C36.5468 20.4166 38.0305 21.0312 39.1245 22.1252C40.2184 23.2192 40.833 24.7029 40.833 26.25Z" fill="#171412"/>
<path fill-rule="evenodd" clip-rule="evenodd" d="M34.999 0C15.6695 0 -0.000976562 15.6705 -0.000976562 35C-0.000976562 54.3295 15.6695 70 34.999 70C54.3286 70 69.999 54.3295 69.999 35C69.999 15.6705 54.3286 0 34.999 0ZM6.36266 35C6.36266 41.65 8.6313 47.7718 12.4336 52.6336C15.1038 49.127 18.5487 46.2851 22.499 44.3301C26.4494 42.3751 30.7982 41.3598 35.2058 41.3636C39.5564 41.3595 43.8506 42.3485 47.7611 44.2552C51.6716 46.1619 55.0953 48.9361 57.7713 52.3664C60.5282 48.7506 62.3844 44.5302 63.1864 40.0546C63.9884 35.579 63.7131 30.9767 62.3833 26.6286C61.0535 22.2805 58.7075 18.3115 55.5392 15.0501C52.371 11.7887 48.4716 9.32864 44.1639 7.87344C39.8561 6.41823 35.2637 6.00973 30.7668 6.68173C26.2698 7.35374 21.9974 9.08693 18.3033 11.7379C14.6091 14.3889 11.5993 17.8814 9.52293 21.9265C7.44654 25.9717 6.36323 30.4531 6.36266 35ZM34.999 63.6364C28.4252 63.6462 22.0499 61.3847 16.9518 57.2346C19.0038 54.2969 21.7351 51.8984 24.9133 50.2431C28.0914 48.5878 31.6224 47.7247 35.2058 47.7273C38.7445 47.7244 42.2328 48.5659 45.3811 50.1818C48.5293 51.7977 51.2466 54.1414 53.3072 57.0182C48.1695 61.3031 41.6891 63.6457 34.999 63.6364Z" fill="#171412"/>
</svg>
