<svg width="24" height="24" viewBox="0 0 24 24" fill="none" xmlns="http://www.w3.org/2000/svg">
<path d="M5.82696 5.82796C5.48296 6.17696 5.25696 6.66696 5.13096 7.59796C5.00196 8.56296 5.00096 9.84097 5.00096 11.68V12.32C5.00096 14.156 5.00196 15.433 5.13096 16.397C5.25596 17.329 5.48296 17.822 5.82796 18.174C6.17796 18.517 6.66796 18.744 7.59796 18.869C8.56296 18.998 9.84097 19 11.68 19H12.32C14.156 19 15.433 18.998 16.398 18.869C17.329 18.744 17.822 18.517 18.174 18.172C18.517 17.823 18.744 17.333 18.869 16.402C18.999 15.437 19 14.159 19 12.32V11.68C19 9.84397 18.998 8.56697 18.87 7.60296C18.744 6.67096 18.517 6.17796 18.172 5.82596C17.823 5.48296 17.333 5.25596 16.402 5.13096C15.437 5.00196 14.159 4.99996 12.32 4.99996H11.68C9.84397 4.99996 8.56697 5.00196 7.60296 5.13096C6.67096 5.25596 6.17896 5.48296 5.82696 5.82796ZM11.68 2.99996H12.32C13.765 2.99996 15.232 2.95696 16.667 3.14896C17.823 3.30396 18.802 3.63496 19.584 4.40896L19.592 4.41796C20.365 5.20196 20.697 6.18096 20.852 7.33796C21.043 8.77096 21 10.237 21 11.68V12.32C21 13.764 21.044 15.231 20.851 16.667C20.697 17.823 20.365 18.802 19.591 19.584L19.582 19.592C18.799 20.365 17.82 20.696 16.662 20.852C15.229 21.043 13.763 21 12.32 21H11.68C10.236 21 8.76896 21.043 7.33396 20.851C6.17696 20.696 5.19796 20.365 4.41696 19.591L4.40796 19.582C3.63596 18.798 3.30396 17.819 3.14896 16.662C2.95696 15.23 2.99996 13.764 2.99996 12.32V11.68C2.99996 10.236 2.95696 8.76896 3.14996 7.33296C3.30396 6.17696 3.63596 5.19796 4.40996 4.41596L4.41796 4.40796C5.20196 3.63496 6.18096 3.30396 7.33796 3.14796C8.77196 2.95796 10.238 2.99996 11.68 2.99996ZM6.03596 8.47796C6.13196 13.158 8.47196 15.966 12.576 15.966H12.816V13.29C14.322 13.44 15.462 14.544 15.918 15.966H18.048C17.8294 15.158 17.4421 14.4054 16.9116 13.758C16.381 13.1106 15.7193 12.583 14.97 12.21C15.6415 11.8011 16.2215 11.2581 16.6737 10.6149C17.1258 9.97177 17.4405 9.24225 17.598 8.47196H15.666C15.246 9.95996 13.998 11.31 12.816 11.436V8.47796H10.878V13.662C9.67797 13.362 8.16597 11.91 8.09997 8.47796H6.03596Z" fill="#8A7861"/>
</svg>
