<svg width="24" height="24" viewBox="0 0 24 24" fill="none" xmlns="http://www.w3.org/2000/svg">
<g clip-path="url(#clip0_23_19)">
<path d="M12 4C12.855 4 13.732 4.022 14.582 4.058L15.586 4.106L16.547 4.163L17.447 4.224L18.269 4.288C19.161 4.35628 20.0004 4.73695 20.6395 5.36304C21.2786 5.98913 21.6764 6.82054 21.763 7.711L21.803 8.136L21.878 9.046C21.948 9.989 22 11.017 22 12C22 12.983 21.948 14.011 21.878 14.954L21.803 15.864C21.79 16.01 21.777 16.151 21.763 16.289C21.6764 17.1796 21.2784 18.0112 20.6391 18.6373C19.9999 19.2634 19.1602 19.6439 18.268 19.712L17.448 19.775L16.548 19.837L15.586 19.894L14.582 19.942C13.7218 19.9794 12.861 19.9987 12 20C11.139 19.9987 10.2782 19.9794 9.418 19.942L8.414 19.894L7.453 19.837L6.553 19.775L5.731 19.712C4.83895 19.6437 3.99955 19.2631 3.36047 18.637C2.72139 18.0109 2.32357 17.1795 2.237 16.289L2.197 15.864L2.122 14.954C2.04554 13.9711 2.00484 12.9858 2 12C2 11.017 2.052 9.989 2.122 9.046L2.197 8.136C2.21 7.99 2.223 7.849 2.237 7.711C2.32354 6.8207 2.72122 5.98942 3.36009 5.36334C3.99897 4.73727 4.83813 4.3565 5.73 4.288L6.551 4.224L7.451 4.163L8.413 4.106L9.417 4.058C10.2775 4.02063 11.1387 4.0013 12 4ZM12 6C11.175 6 10.326 6.022 9.5 6.056L8.522 6.103L7.583 6.158L6.701 6.218L5.893 6.281C5.46833 6.31113 5.06804 6.49065 4.76309 6.78773C4.45814 7.08481 4.26822 7.48026 4.227 7.904C4.11 9.113 4 10.618 4 12C4 13.382 4.11 14.887 4.227 16.096C4.312 16.968 5.004 17.646 5.893 17.719L6.701 17.781L7.583 17.841L8.522 17.897L9.5 17.944C10.326 17.978 11.175 18 12 18C12.825 18 13.674 17.978 14.5 17.944L15.478 17.897L16.417 17.842L17.299 17.782L18.107 17.719C18.5317 17.6889 18.932 17.5094 19.2369 17.2123C19.5419 16.9152 19.7318 16.5197 19.773 16.096C19.89 14.887 20 13.382 20 12C20 10.618 19.89 9.113 19.773 7.904C19.7318 7.48026 19.5419 7.08481 19.2369 6.78773C18.932 6.49065 18.5317 6.31113 18.107 6.281L17.299 6.219L16.417 6.159L15.478 6.103L14.5 6.056C13.6671 6.02017 12.8336 6.0015 12 6ZM10 9.575C9.99994 9.47726 10.0237 9.38099 10.0694 9.29455C10.115 9.20812 10.181 9.13413 10.2618 9.07903C10.3425 9.02394 10.4354 8.98939 10.5326 8.97841C10.6297 8.96742 10.728 8.98033 10.819 9.016L10.9 9.056L15.1 11.48C15.1836 11.5283 15.2544 11.596 15.3063 11.6774C15.3581 11.7589 15.3896 11.8517 15.3979 11.9478C15.4062 12.044 15.3912 12.1408 15.3542 12.23C15.3171 12.3192 15.2591 12.3981 15.185 12.46L15.1 12.52L10.9 14.945C10.8154 14.994 10.72 15.0216 10.6223 15.0253C10.5246 15.0291 10.4274 15.0089 10.3393 14.9665C10.2511 14.9241 10.1747 14.8608 10.1166 14.7821C10.0585 14.7034 10.0205 14.6117 10.006 14.515L10 14.425V9.575Z" fill="#8A7861"/>
</g>
<defs>
<clipPath id="clip0_23_19">
<rect width="24" height="24" fill="white"/>
</clipPath>
</defs>
</svg>
