<svg width="140" height="39" viewBox="0 0 140 39" fill="none" xmlns="http://www.w3.org/2000/svg">
<path d="M40.392 16V4.8H42.968V12.096L48.312 4.8H50.744V16H48.184V8.72L42.84 16H40.392ZM53.3406 16V7.392H55.9486L59.1966 13.28H58.1566L61.6286 7.392H63.9646L63.9966 16H61.7406V9.952L62.1246 10.208L59.1646 15.168H58.1086L55.1326 10.032L55.5966 9.92V16H53.3406ZM66.3875 16V7.392H68.9955L72.2435 13.28H71.2035L74.6755 7.392H77.0115L77.0435 16H74.7875V9.952L75.1715 10.208L72.2115 15.168H71.1555L68.1795 10.032L68.6435 9.92V16H66.3875ZM83.4664 16.128C82.549 16.128 81.733 15.936 81.0184 15.552C80.3144 15.168 79.7544 14.6453 79.3384 13.984C78.933 13.312 78.7304 12.5493 78.7304 11.696C78.7304 10.832 78.933 10.0693 79.3384 9.408C79.7544 8.736 80.3144 8.21333 81.0184 7.84C81.733 7.456 82.549 7.264 83.4664 7.264C84.373 7.264 85.1837 7.456 85.8984 7.84C86.613 8.21333 87.173 8.73067 87.5784 9.392C87.9837 10.0533 88.1864 10.8213 88.1864 11.696C88.1864 12.5493 87.9837 13.312 87.5784 13.984C87.173 14.6453 86.613 15.168 85.8984 15.552C85.1837 15.936 84.373 16.128 83.4664 16.128ZM83.4664 14.08C83.8824 14.08 84.2557 13.984 84.5864 13.792C84.917 13.6 85.1784 13.328 85.3704 12.976C85.5624 12.6133 85.6584 12.1867 85.6584 11.696C85.6584 11.1947 85.5624 10.768 85.3704 10.416C85.1784 10.064 84.917 9.792 84.5864 9.6C84.2557 9.408 83.8824 9.312 83.4664 9.312C83.0504 9.312 82.677 9.408 82.3464 9.6C82.0157 9.792 81.749 10.064 81.5464 10.416C81.3544 10.768 81.2584 11.1947 81.2584 11.696C81.2584 12.1867 81.3544 12.6133 81.5464 12.976C81.749 13.328 82.0157 13.6 82.3464 13.792C82.677 13.984 83.0504 14.08 83.4664 14.08Z" fill="#171412"/>
<path d="M69.472 35.192C68.768 35.192 68.128 35.0907 67.552 34.888C66.976 34.6747 66.4747 34.3493 66.048 33.912C65.632 33.464 65.3067 32.8933 65.072 32.2C64.848 31.5067 64.736 30.68 64.736 29.72C64.736 29.0373 64.7947 28.4133 64.912 27.848C65.0293 27.2827 65.2053 26.7707 65.44 26.312C65.6747 25.8427 65.9733 25.432 66.336 25.08C66.7093 24.7173 67.1413 24.4187 67.632 24.184C68.1333 23.9387 68.6987 23.752 69.328 23.624L73.424 22.808L73.76 24.952L70.144 25.672C69.9307 25.7147 69.6853 25.7733 69.408 25.848C69.1413 25.912 68.8693 26.0133 68.592 26.152C68.3253 26.2907 68.0747 26.488 67.84 26.744C67.616 26.9893 67.4347 27.3147 67.296 27.72C67.1573 28.1147 67.088 28.6053 67.088 29.192C67.088 29.3733 67.0933 29.512 67.104 29.608C67.1253 29.704 67.1413 29.8053 67.152 29.912C67.1733 30.0187 67.184 30.184 67.184 30.408L66.384 29.624C66.6187 29.1227 66.9173 28.696 67.28 28.344C67.6533 27.992 68.08 27.7253 68.56 27.544C69.0507 27.352 69.5947 27.256 70.192 27.256C71.0027 27.256 71.712 27.4213 72.32 27.752C72.9387 28.072 73.4187 28.5253 73.76 29.112C74.1013 29.6987 74.272 30.3653 74.272 31.112C74.272 31.9227 74.0693 32.6373 73.664 33.256C73.2587 33.864 72.6933 34.3387 71.968 34.68C71.2533 35.0213 70.4213 35.192 69.472 35.192ZM69.6 33.256C70.016 33.256 70.384 33.1653 70.704 32.984C71.024 32.792 71.2693 32.5413 71.44 32.232C71.6213 31.912 71.712 31.5547 71.712 31.16C71.712 30.776 71.6213 30.4347 71.44 30.136C71.2693 29.8373 71.024 29.6027 70.704 29.432C70.384 29.2613 70.0107 29.176 69.584 29.176C69.168 29.176 68.7947 29.2613 68.464 29.432C68.1333 29.592 67.8773 29.816 67.696 30.104C67.5147 30.392 67.424 30.728 67.424 31.112C67.424 31.5067 67.5147 31.8693 67.696 32.2C67.888 32.52 68.144 32.776 68.464 32.968C68.7947 33.16 69.1733 33.256 69.6 33.256ZM75.9656 35V26.392H78.4456V31.512L82.6376 26.392H84.9256V35H82.4456V29.88L78.2696 35H75.9656ZM86.237 34.984L86.365 32.936C86.429 32.9467 86.493 32.9573 86.557 32.968C86.621 32.968 86.6797 32.968 86.733 32.968C87.0317 32.968 87.2663 32.8827 87.437 32.712C87.6077 32.5413 87.7357 32.312 87.821 32.024C87.9063 31.7253 87.965 31.3893 87.997 31.016C88.0397 30.6427 88.0717 30.2533 88.093 29.848L88.221 26.392H95.581V35H93.085V27.832L93.645 28.44H89.869L90.397 27.8L90.285 29.96C90.253 30.728 90.189 31.432 90.093 32.072C90.0077 32.712 89.8637 33.2667 89.661 33.736C89.4583 34.1947 89.1863 34.552 88.845 34.808C88.5037 35.0533 88.0663 35.176 87.533 35.176C87.341 35.176 87.1383 35.16 86.925 35.128C86.7117 35.096 86.4823 35.048 86.237 34.984ZM97.9813 35V26.392H100.461V31.512L104.653 26.392H106.941V35H104.461V29.88L100.285 35H97.9813ZM114.493 35V33.32L114.333 32.952V29.944C114.333 29.4107 114.167 28.9947 113.837 28.696C113.517 28.3973 113.021 28.248 112.349 28.248C111.89 28.248 111.437 28.3227 110.989 28.472C110.551 28.6107 110.178 28.8027 109.869 29.048L108.973 27.304C109.442 26.9733 110.007 26.7173 110.669 26.536C111.33 26.3547 112.002 26.264 112.685 26.264C113.997 26.264 115.015 26.5733 115.741 27.192C116.466 27.8107 116.829 28.776 116.829 30.088V35H114.493ZM111.869 35.128C111.197 35.128 110.621 35.016 110.141 34.792C109.661 34.5573 109.293 34.2427 109.037 33.848C108.781 33.4533 108.653 33.0107 108.653 32.52C108.653 32.008 108.775 31.56 109.021 31.176C109.277 30.792 109.677 30.4933 110.221 30.28C110.765 30.056 111.474 29.944 112.349 29.944H114.637V31.4H112.621C112.034 31.4 111.629 31.496 111.405 31.688C111.191 31.88 111.085 32.12 111.085 32.408C111.085 32.728 111.207 32.984 111.453 33.176C111.709 33.3573 112.055 33.448 112.493 33.448C112.909 33.448 113.282 33.352 113.613 33.16C113.943 32.9573 114.183 32.664 114.333 32.28L114.717 33.432C114.535 33.9867 114.205 34.408 113.725 34.696C113.245 34.984 112.626 35.128 111.869 35.128ZM124.069 35.128C123.344 35.128 122.709 34.968 122.165 34.648C121.621 34.328 121.194 33.8427 120.885 33.192C120.586 32.5307 120.437 31.6987 120.437 30.696C120.437 29.6827 120.581 28.8507 120.869 28.2C121.157 27.5493 121.573 27.064 122.117 26.744C122.661 26.424 123.312 26.264 124.069 26.264C124.88 26.264 125.605 26.4507 126.245 26.824C126.896 27.1867 127.408 27.6987 127.781 28.36C128.165 29.0213 128.357 29.8 128.357 30.696C128.357 31.6027 128.165 32.3867 127.781 33.048C127.408 33.7093 126.896 34.2213 126.245 34.584C125.605 34.9467 124.88 35.128 124.069 35.128ZM118.981 38.104V26.392H121.365V28.152L121.317 30.712L121.477 33.256V38.104H118.981ZM123.637 33.08C124.053 33.08 124.421 32.984 124.741 32.792C125.072 32.6 125.333 32.328 125.525 31.976C125.728 31.6133 125.829 31.1867 125.829 30.696C125.829 30.1947 125.728 29.768 125.525 29.416C125.333 29.064 125.072 28.792 124.741 28.6C124.421 28.408 124.053 28.312 123.637 28.312C123.221 28.312 122.848 28.408 122.517 28.6C122.186 28.792 121.925 29.064 121.733 29.416C121.541 29.768 121.445 30.1947 121.445 30.696C121.445 31.1867 121.541 31.6133 121.733 31.976C121.925 32.328 122.186 32.6 122.517 32.792C122.848 32.984 123.221 33.08 123.637 33.08ZM134.314 35.128C133.333 35.128 132.469 34.936 131.722 34.552C130.986 34.168 130.416 33.6453 130.01 32.984C129.605 32.312 129.402 31.5493 129.402 30.696C129.402 29.832 129.6 29.0693 129.994 28.408C130.4 27.736 130.949 27.2133 131.642 26.84C132.336 26.456 133.12 26.264 133.994 26.264C134.837 26.264 135.594 26.4453 136.266 26.808C136.949 27.16 137.488 27.672 137.882 28.344C138.277 29.0053 138.474 29.8 138.474 30.728C138.474 30.824 138.469 30.936 138.458 31.064C138.448 31.1813 138.437 31.2933 138.426 31.4H131.434V29.944H137.114L136.154 30.376C136.154 29.928 136.064 29.5387 135.882 29.208C135.701 28.8773 135.45 28.6213 135.13 28.44C134.81 28.248 134.437 28.152 134.01 28.152C133.584 28.152 133.205 28.248 132.874 28.44C132.554 28.6213 132.304 28.8827 132.122 29.224C131.941 29.5547 131.85 29.9493 131.85 30.408V30.792C131.85 31.2613 131.952 31.6773 132.154 32.04C132.368 32.392 132.661 32.664 133.034 32.856C133.418 33.0373 133.866 33.128 134.378 33.128C134.837 33.128 135.237 33.0587 135.578 32.92C135.93 32.7813 136.25 32.5733 136.538 32.296L137.866 33.736C137.472 34.184 136.976 34.5307 136.378 34.776C135.781 35.0107 135.093 35.128 134.314 35.128Z" fill="#171412"/>
<path fill-rule="evenodd" clip-rule="evenodd" d="M14.5 2H0V13V24H14.5V35H29V24V13H14.5V2Z" fill="#171412"/>
</svg>
