<svg width="40" height="40" viewBox="0 0 40 40" fill="none" xmlns="http://www.w3.org/2000/svg">
<rect width="40" height="40" rx="20" fill="#F28F0D"/>
<g clip-path="url(#clip0_47_19)">
<path fill-rule="evenodd" clip-rule="evenodd" d="M26.6663 15C26.6663 16.7681 25.964 18.4638 24.7137 19.714C23.4635 20.9643 21.7678 21.6666 19.9997 21.6666C18.2316 21.6666 16.5359 20.9643 15.2856 19.714C14.0354 18.4638 13.333 16.7681 13.333 15C13.333 13.2319 14.0354 11.5362 15.2856 10.2859C16.5359 9.03569 18.2316 8.33331 19.9997 8.33331C21.7678 8.33331 23.4635 9.03569 24.7137 10.2859C25.964 11.5362 26.6663 13.2319 26.6663 15ZM23.333 15C23.333 15.884 22.9818 16.7319 22.3567 17.357C21.7316 17.9821 20.8837 18.3333 19.9997 18.3333C19.1156 18.3333 18.2678 17.9821 17.6427 17.357C17.0175 16.7319 16.6663 15.884 16.6663 15C16.6663 14.1159 17.0175 13.2681 17.6427 12.643C18.2678 12.0178 19.1156 11.6666 19.9997 11.6666C20.8837 11.6666 21.7316 12.0178 22.3567 12.643C22.9818 13.2681 23.333 14.1159 23.333 15Z" fill="#171412"/>
<path fill-rule="evenodd" clip-rule="evenodd" d="M19.9995 0C8.95406 0 -0.000488281 8.95455 -0.000488281 20C-0.000488281 31.0455 8.95406 40 19.9995 40C31.045 40 39.9995 31.0455 39.9995 20C39.9995 8.95455 31.045 0 19.9995 0ZM3.63588 20C3.63588 23.8 4.93224 27.2982 7.10497 30.0764C8.63084 28.0725 10.5993 26.4486 12.8567 25.3315C15.114 24.2143 17.599 23.6342 20.1177 23.6364C22.6037 23.634 25.0575 24.1991 27.2921 25.2887C29.5267 26.3783 31.4831 27.9635 33.0122 29.9236C34.5876 27.8575 35.6483 25.4458 36.1066 22.8883C36.5649 20.3308 36.4076 17.701 35.6477 15.2163C34.8878 12.7317 33.5472 10.4637 31.7368 8.60007C29.9263 6.73641 27.6982 5.33065 25.2366 4.49911C22.775 3.66756 20.1508 3.43413 17.5811 3.81813C15.0114 4.20214 12.57 5.19253 10.4591 6.70737C8.34814 8.22221 6.62826 10.2179 5.44175 12.5294C4.25523 14.8409 3.6362 17.4018 3.63588 20ZM19.9995 36.3636C16.2431 36.3693 12.6 35.077 9.68678 32.7055C10.8594 31.0268 12.4201 29.6562 14.2362 28.7103C16.0523 27.7645 18.07 27.2713 20.1177 27.2727C22.1398 27.2711 24.1331 27.752 25.9321 28.6753C27.7311 29.5987 29.2838 30.9379 30.4613 32.5818C27.5255 35.0304 23.8224 36.369 19.9995 36.3636Z" fill="#171412"/>
</g>
<defs>
<clipPath id="clip0_47_19">
<rect width="40" height="40" fill="white"/>
</clipPath>
</defs>
</svg>
