<svg width="48" height="48" viewBox="0 0 48 48" fill="none" xmlns="http://www.w3.org/2000/svg">
<path d="M24 4.5C16.5469 4.5 10.5 10.2553 10.5 17.3438C10.5 25.5 19.5 38.4253 22.8047 42.8897C22.9419 43.0781 23.1217 43.2315 23.3294 43.3372C23.5371 43.443 23.7669 43.4981 24 43.4981C24.2331 43.4981 24.4629 43.443 24.6706 43.3372C24.8783 43.2315 25.0581 43.0781 25.1953 42.8897C28.5 38.4272 37.5 25.5066 37.5 17.3438C37.5 10.2553 31.4531 4.5 24 4.5Z" stroke="black" stroke-width="4" stroke-linecap="round" stroke-linejoin="round"/>
<path d="M24 22.5C26.4853 22.5 28.5 20.4853 28.5 18C28.5 15.5147 26.4853 13.5 24 13.5C21.5147 13.5 19.5 15.5147 19.5 18C19.5 20.4853 21.5147 22.5 24 22.5Z" stroke="black" stroke-width="4" stroke-linecap="round" stroke-linejoin="round"/>
</svg>
