<svg width="48" height="48" viewBox="0 0 48 48" fill="none" xmlns="http://www.w3.org/2000/svg">
<path fill-rule="evenodd" clip-rule="evenodd" d="M16.344 31.658C24.034 39.348 31.16 40.19 33.252 40.268C35.78 40.36 38.36 38.296 39.476 36.182C37.696 34.094 35.378 32.474 32.84 30.718C31.342 32.214 29.496 34.994 27.038 33.998C25.64 33.436 22.188 31.846 19.172 28.828C16.154 25.812 14.566 22.36 14 20.964C13.004 18.502 15.792 16.652 17.29 15.154C15.534 12.574 13.942 10.196 11.858 8.506C9.714 9.626 7.638 12.186 7.732 14.748C7.81 16.84 8.652 23.966 16.344 31.658ZM33.104 44.266C30.224 44.16 22.062 43.032 13.514 34.486C4.968 25.938 3.842 17.778 3.734 14.896C3.574 10.504 6.938 6.238 10.824 4.572C11.292 4.36994 11.8044 4.293 12.3111 4.34875C12.8177 4.4045 13.3012 4.59102 13.714 4.89C16.93 7.236 19.148 10.79 21.054 13.574C21.4505 14.1529 21.6321 14.8522 21.5675 15.5509C21.5028 16.2496 21.196 16.9037 20.7 17.4L17.988 20.114C18.618 21.504 19.9 23.9 22 26C24.1 28.1 26.496 29.382 27.888 30.012L30.598 27.3C31.0962 26.803 31.7531 26.4965 32.454 26.434C33.155 26.3715 33.8557 26.557 34.434 26.958C37.274 28.926 40.61 31.112 43.042 34.226C43.3653 34.6418 43.5709 35.1368 43.6374 35.6593C43.7039 36.1817 43.6288 36.7125 43.42 37.196C41.746 41.102 37.51 44.428 33.104 44.266Z" fill="black"/>
</svg>
